PathFileType	4	(X/Y/Z)	 2.6Hz3min.trc
DataRate	CameraRate	NumFrames	NumMarkers	Units	OrigDataRate	OrigDataStartFrame	OrigNumFrames
200	200	9	35	m	200	126	1000
Frame#	Time	C7			LSH			RSH			MAN			RASI			LASI			HIPR			HIPL			RPSI			LPSI			COX			RTHI1			RTHI2			RTHI3			RTHI4			RSHA1			RSHA2			RSHA3			RSHA4			RHEEL			RMET5			RMET1			RTOE			LTHI1			LTHI2			LTHI3			LTHI4			LSHA1			LSHA2			LSHA3			LSHA4			LHEEL			LMET5			LMET1			LTOE			
		X1	Y1	Z1	X2	Y2	Z2	X3	Y3	Z3	X4	Y4	Z4	X5	Y5	Z5	X6	Y6	Z6	X7	Y7	Z7	X8	Y8	Z8	X9	Y9	Z9	X10	Y10	Z10	X11	Y11	Z11	X12	Y12	Z12	X13	Y13	Z13	X14	Y14	Z14	X15	Y15	Z15	X16	Y16	Z16	X17	Y17	Z17	X18	Y18	Z18	X19	Y19	Z19	X20	Y20	Z20	X21	Y21	Z21	X22	Y22	Z22	X23	Y23	Z23	X24	Y24	Z24	X25	Y25	Z25	X26	Y26	Z26	X27	Y27	Z27	X28	Y28	Z28	X29	Y29	Z29	X30	Y30	Z30	X31	Y31	Z31	X32	Y32	Z32	X33	Y33	Z33	X34	Y34	Z34	X35	Y35	Z35	
126	0.6300	-0.300234	1.389247	-0.557138	-0.234179	1.377432	-0.738686	-0.225795	1.353153	-0.383016	-0.167309	1.340673	-0.564272	-0.148869	0.941145	-0.453990	-0.161846	0.944003	-0.671739	-0.213755	0.982967	-0.411779	-0.213332	0.994085	-0.701354	-0.318206	0.978964	-0.497331	-0.322018	0.980066	-0.602840	-0.320661	0.988073	-0.553121	-0.253332	0.740702	-0.389895	-0.231033	0.685416	-0.388448	-0.169878	0.705464	-0.380628	-0.184808	0.765363	-0.379633	-0.258262	0.350738	-0.369756	-0.274988	0.311175	-0.375932	-0.217018	0.294887	-0.383304	-0.204813	0.333488	-0.381575	-0.381397	0.099626	-0.417880	-0.243082	0.024360	-0.369242	-0.206804	0.035842	-0.449112	-0.182714	0.027768	-0.454335	-0.247493	0.718819	-0.736865	-0.215254	0.666380	-0.738838	-0.156851	0.695516	-0.737575	-0.182047	0.749778	-0.736255	-0.294727	0.330714	-0.741396	-0.314200	0.295241	-0.738455	-0.256264	0.270944	-0.739283	-0.243524	0.312998	-0.742405	-0.410032	0.097084	-0.693322	-0.274798	0.029599	-0.752499	-0.235445	0.036897	-0.682258	-0.212118	0.027683	-0.683179	
127	0.6350	-0.300275	1.394310	-0.557065	-0.234306	1.383296	-0.738290	-0.226031	1.359228	-0.383227	-0.167482	1.346478	-0.564274	-0.148269	0.946388	-0.454416	-0.161185	0.949467	-0.671815	-0.212907	0.988344	-0.412152	-0.212923	1.000150	-0.701058	-0.317370	0.984075	-0.497427	-0.321234	0.985260	-0.602897	-0.319952	0.993096	-0.553184	-0.253209	0.746065	-0.389566	-0.231215	0.690596	-0.388177	-0.169960	0.710298	-0.380689	-0.184469	0.770281	-0.379779	-0.259244	0.354686	-0.369237	-0.275689	0.315079	-0.375382	-0.217527	0.299211	-0.382414	-0.205645	0.337897	-0.380818	-0.379559	0.102948	-0.417219	-0.242599	0.024777	-0.369324	-0.206705	0.035861	-0.449105	-0.182861	0.027775	-0.454378	-0.246885	0.724413	-0.737696	-0.214943	0.671785	-0.739474	-0.156389	0.700562	-0.737525	-0.181259	0.754973	-0.736322	-0.295485	0.334701	-0.742285	-0.314614	0.298998	-0.739346	-0.256453	0.275245	-0.740296	-0.244100	0.317407	-0.743337	-0.408112	0.100540	-0.694380	-0.274023	0.030058	-0.752453	-0.235210	0.036951	-0.682152	-0.212184	0.027741	-0.683109	
128	0.6400	-0.300336	1.399379	-0.556977	-0.234429	1.389193	-0.737825	-0.226184	1.365326	-0.383544	-0.167713	1.352317	-0.564245	-0.147708	0.951711	-0.454841	-0.160527	0.954904	-0.671859	-0.212073	0.993839	-0.412589	-0.212476	1.006276	-0.700715	-0.316546	0.989221	-0.497591	-0.320433	0.990473	-0.603003	-0.319234	0.998150	-0.553304	-0.253139	0.751494	-0.389205	-0.231439	0.695850	-0.387830	-0.170100	0.715219	-0.380649	-0.184199	0.775276	-0.379862	-0.260263	0.358696	-0.368668	-0.276378	0.319029	-0.374747	-0.218028	0.303593	-0.381412	-0.206499	0.342374	-0.379922	-0.377583	0.106293	-0.416663	-0.242092	0.025217	-0.369415	-0.206589	0.035896	-0.449090	-0.183002	0.027803	-0.454397	-0.246384	0.730033	-0.738547	-0.214744	0.677221	-0.740156	-0.156051	0.705637	-0.737572	-0.180590	0.760198	-0.736456	-0.296244	0.338656	-0.743153	-0.315015	0.302745	-0.740195	-0.256636	0.279544	-0.741362	-0.244684	0.321820	-0.744345	-0.406068	0.103967	-0.695358	-0.273199	0.030551	-0.752392	-0.234945	0.037034	-0.682058	-0.212239	0.027834	-0.683080	
129	0.6450	-0.300332	1.404395	-0.556832	-0.234565	1.395089	-0.737290	-0.226320	1.371416	-0.383900	-0.168007	1.358145	-0.564185	-0.147185	0.957066	-0.455260	-0.159870	0.960266	-0.671879	-0.211266	0.999396	-0.413087	-0.211987	1.012385	-0.700350	-0.315736	0.994363	-0.497817	-0.319618	0.995668	-0.603169	-0.318513	1.003190	-0.553480	-0.253125	0.756941	-0.388808	-0.231715	0.701141	-0.387403	-0.170297	0.720200	-0.380515	-0.184000	0.780323	-0.379898	-0.261300	0.362715	-0.368085	-0.277041	0.322994	-0.374049	-0.218509	0.308000	-0.380313	-0.207354	0.346881	-0.378959	-0.375476	0.109646	-0.416210	-0.241565	0.025679	-0.369524	-0.206443	0.035950	-0.449066	-0.183130	0.027852	-0.454386	-0.246003	0.735641	-0.739404	-0.214665	0.682646	-0.740874	-0.155839	0.710709	-0.737704	-0.180049	0.765411	-0.736657	-0.296998	0.342541	-0.743983	-0.315404	0.306434	-0.740987	-0.256808	0.283796	-0.742464	-0.245277	0.326184	-0.745407	-0.403910	0.107338	-0.696262	-0.272340	0.031076	-0.752312	-0.234665	0.037153	-0.682000	-0.212290	0.027972	-0.683118	
130	0.6500	-0.300295	1.409342	-0.556658	-0.234734	1.400958	-0.736698	-0.226445	1.377452	-0.384278	-0.168322	1.363927	-0.564101	-0.146704	0.962410	-0.455666	-0.159223	0.965512	-0.671880	-0.210500	1.004966	-0.413645	-0.211451	1.018417	-0.699995	-0.314931	0.999471	-0.498115	-0.318794	1.000811	-0.603394	-0.317800	1.008195	-0.553713	-0.253168	0.762395	-0.388398	-0.232056	0.706437	-0.386881	-0.170554	0.725208	-0.380289	-0.183871	0.785388	-0.379895	-0.262345	0.366699	-0.367490	-0.277650	0.326905	-0.373237	-0.218953	0.312390	-0.379153	-0.208197	0.351380	-0.377965	-0.373253	0.112993	-0.415841	-0.241023	0.026156	-0.369657	-0.206257	0.036033	-0.449027	-0.183234	0.027924	-0.454332	-0.245744	0.741212	-0.740260	-0.214710	0.688038	-0.741616	-0.155758	0.715741	-0.737915	-0.179638	0.770581	-0.736915	-0.297750	0.346302	-0.744754	-0.315773	0.310014	-0.741713	-0.256962	0.287960	-0.743570	-0.245876	0.330449	-0.746493	-0.401653	0.110653	-0.697135	-0.271451	0.031633	-0.752210	-0.234392	0.037303	-0.682002	-0.212344	0.028159	-0.683249	
131	0.6550	-0.300250	1.414197	-0.556462	-0.234934	1.406763	-0.736052	-0.226556	1.383388	-0.384687	-0.168638	1.369616	-0.563996	-0.146271	0.967694	-0.456054	-0.158589	0.970599	-0.671868	-0.209793	1.010496	-0.414246	-0.210868	1.024315	-0.699681	-0.314137	1.004520	-0.498470	-0.317968	1.005870	-0.603676	-0.317103	1.013134	-0.554005	-0.253272	0.767814	-0.387975	-0.232459	0.711718	-0.386275	-0.170862	0.730205	-0.379988	-0.183809	0.790435	-0.379865	-0.263378	0.370621	-0.366893	-0.278214	0.330715	-0.372418	-0.219353	0.316735	-0.377992	-0.209022	0.355839	-0.376965	-0.370919	0.116321	-0.415517	-0.240474	0.026653	-0.369820	-0.206017	0.036153	-0.448968	-0.183304	0.028021	-0.454218	-0.245607	0.746710	-0.741094	-0.214878	0.693363	-0.742378	-0.155803	0.720699	-0.738205	-0.179354	0.775678	-0.737220	-0.298492	0.349922	-0.745468	-0.316113	0.313446	-0.742359	-0.257088	0.292004	-0.744663	-0.246470	0.334587	-0.747574	-0.399318	0.113900	-0.698009	-0.270532	0.032228	-0.752085	-0.234136	0.037490	-0.682085	-0.212405	0.028402	-0.683498	
132	0.6600	-0.300193	1.418938	-0.556242	-0.235168	1.412470	-0.735361	-0.226685	1.389209	-0.385047	-0.168950	1.375173	-0.563873	-0.145886	0.972871	-0.456421	-0.157967	0.975498	-0.671848	-0.209157	1.015931	-0.414876	-0.210242	1.030028	-0.699432	-0.313351	1.009479	-0.498887	-0.317140	1.010821	-0.604024	-0.316425	1.017983	-0.554351	-0.253431	0.773174	-0.387554	-0.232924	0.716935	-0.385613	-0.171219	0.735153	-0.379618	-0.183814	0.795429	-0.379818	-0.264386	0.374450	-0.366321	-0.278728	0.334395	-0.371604	-0.219716	0.320997	-0.376852	-0.209822	0.360221	-0.375986	-0.368479	0.119606	-0.415239	-0.239910	0.027188	-0.370034	-0.205710	0.036318	-0.448882	-0.183329	0.028148	-0.454032	-0.245582	0.752107	-0.741895	-0.215161	0.698586	-0.743147	-0.155957	0.725564	-0.738569	-0.179183	0.780672	-0.737570	-0.299215	0.353370	-0.746118	-0.316413	0.316707	-0.742933	-0.257180	0.295900	-0.745724	-0.247048	0.338570	-0.748624	-0.396930	0.117062	-0.698894	-0.269585	0.032869	-0.751936	-0.233906	0.037729	-0.682261	-0.212472	0.028715	-0.683886	
133	0.6650	-0.300111	1.423537	-0.555991	-0.235421	1.418040	-0.734632	-0.226819	1.394872	-0.385365	-0.169249	1.380566	-0.563734	-0.145548	0.977902	-0.456764	-0.157357	0.980177	-0.671830	-0.208607	1.021218	-0.415518	-0.209576	1.035504	-0.699263	-0.312578	1.014320	-0.499360	-0.316314	1.015643	-0.604428	-0.315775	1.022713	-0.554750	-0.253652	0.778426	-0.387141	-0.233446	0.722052	-0.384919	-0.171634	0.740014	-0.379188	-0.183888	0.800343	-0.379757	-0.265363	0.378158	-0.365799	-0.279212	0.337953	-0.370883	-0.220037	0.325157	-0.375759	-0.210588	0.364502	-0.375057	-0.365946	0.122831	-0.414991	-0.239312	0.027776	-0.370321	-0.205323	0.036543	-0.448761	-0.183297	0.028310	-0.453755	-0.245655	0.757379	-0.742654	-0.215544	0.703684	-0.743908	-0.156204	0.730306	-0.738998	-0.179114	0.785535	-0.737949	-0.299899	0.356632	-0.746698	-0.316666	0.319771	-0.743442	-0.257227	0.299624	-0.746737	-0.247598	0.342378	-0.749620	-0.394521	0.120122	-0.699808	-0.268611	0.033568	-0.751775	-0.233682	0.038041	-0.682542	-0.212525	0.029117	-0.684427	
134	0.6700	-0.300041	1.427988	-0.555723	-0.235674	1.423438	-0.733874	-0.226921	1.400327	-0.385702	-0.169548	1.385761	-0.563579	-0.145257	0.982743	-0.457088	-0.156765	0.984623	-0.671815	-0.208149	1.026320	-0.416160	-0.208875	1.040717	-0.699182	-0.311820	1.019022	-0.499887	-0.315492	1.020315	-0.604887	-0.315153	1.027314	-0.555198	-0.253931	0.783545	-0.386766	-0.234026	0.727047	-0.384221	-0.172106	0.744753	-0.378716	-0.184034	0.805127	-0.379679	-0.266306	0.381714	-0.365334	-0.279678	0.341348	-0.370275	-0.220318	0.329190	-0.374745	-0.211321	0.368651	-0.374185	-0.363355	0.125987	-0.414730	-0.238664	0.028435	-0.370684	-0.204858	0.036838	-0.448591	-0.183198	0.028503	-0.453364	-0.245810	0.762499	-0.743354	-0.216006	0.708634	-0.744651	-0.156526	0.734897	-0.739481	-0.179122	0.790247	-0.738350	-0.300527	0.359692	-0.747214	-0.316855	0.322637	-0.743901	-0.257222	0.303162	-0.747688	-0.248097	0.346009	-0.750541	-0.392132	0.123078	-0.700760	-0.267613	0.034341	-0.751624	-0.233435	0.038452	-0.682945	-0.212533	0.029628	-0.685129	
